<svg width="20" height="20" viewBox="0 0 20 20" fill="none" xmlns="http://www.w3.org/2000/svg">
<path d="M16.875 2.5H14.375V1.875C14.375 1.70924 14.3092 1.55027 14.1919 1.43306C14.0747 1.31585 13.9158 1.25 13.75 1.25C13.5842 1.25 13.4253 1.31585 13.3081 1.43306C13.1908 1.55027 13.125 1.70924 13.125 1.875V2.5H6.875V1.875C6.875 1.70924 6.80915 1.55027 6.69194 1.43306C6.57473 1.31585 6.41576 1.25 6.25 1.25C6.08424 1.25 5.92527 1.31585 5.80806 1.43306C5.69085 1.55027 5.625 1.70924 5.625 1.875V2.5H3.125C2.62772 2.5 2.15081 2.69754 1.79917 3.04917C1.44754 3.40081 1.25 3.87772 1.25 4.375V16.875C1.25 17.3723 1.44754 17.8492 1.79917 18.2008C2.15081 18.5525 2.62772 18.75 3.125 18.75H16.875C17.3723 18.75 17.8492 18.5525 18.2008 18.2008C18.5525 17.8492 18.75 17.3723 18.75 16.875V4.375C18.75 3.87772 18.5525 3.40081 18.2008 3.04917C17.8492 2.69754 17.3723 2.5 16.875 2.5ZM3.125 3.75H5.625V4.375C5.625 4.54076 5.69085 4.69973 5.80806 4.81694C5.92527 4.93415 6.08424 5 6.25 5C6.41576 5 6.57473 4.93415 6.69194 4.81694C6.80915 4.69973 6.875 4.54076 6.875 4.375V3.75H13.125V4.375C13.125 4.54076 13.1908 4.69973 13.3081 4.81694C13.4253 4.93415 13.5842 5 13.75 5C13.9158 5 14.0747 4.93415 14.1919 4.81694C14.3092 4.69973 14.375 4.54076 14.375 4.375V3.75H16.875C17.0408 3.75 17.1997 3.81585 17.3169 3.93306C17.4342 4.05027 17.5 4.20924 17.5 4.375V7.5H2.5V4.375C2.5 4.20924 2.56585 4.05027 2.68306 3.93306C2.80027 3.81585 2.95924 3.75 3.125 3.75ZM16.875 17.5H3.125C2.95924 17.5 2.80027 17.4342 2.68306 17.3169C2.56585 17.1997 2.5 17.0408 2.5 16.875V8.75H17.5V16.875C17.5 17.0408 17.4342 17.1997 17.3169 17.3169C17.1997 17.4342 17.0408 17.5 16.875 17.5Z" fill="black"/>
<path d="M9.37422 15.6249C9.29132 15.6248 9.20928 15.6081 9.13288 15.5759C9.05648 15.5437 8.98725 15.4966 8.92922 15.4374L7.07922 13.5624C7.01638 13.5052 6.96587 13.4358 6.93078 13.3584C6.89568 13.281 6.87674 13.1972 6.87511 13.1123C6.87349 13.0273 6.88921 12.9429 6.92131 12.8642C6.95341 12.7855 7.00123 12.7142 7.06183 12.6546C7.12243 12.595 7.19455 12.5484 7.27377 12.5177C7.353 12.4869 7.43766 12.4726 7.52259 12.4757C7.60752 12.4788 7.69093 12.4991 7.76773 12.5355C7.84452 12.572 7.91308 12.6236 7.96922 12.6874L9.33547 14.0718L12.0186 10.8506C12.1249 10.7231 12.2774 10.6431 12.4427 10.6281C12.6079 10.613 12.7724 10.6643 12.8998 10.7706C13.0273 10.8768 13.1074 11.0294 13.1224 11.1946C13.1374 11.3599 13.0861 11.5243 12.9798 11.6518L9.85485 15.4018C9.79871 15.4685 9.72935 15.5228 9.65113 15.5614C9.57292 15.5999 9.48757 15.6217 9.40047 15.6256L9.37422 15.6249Z" fill="black"/>
</svg>
