<svg width="16" height="16" viewBox="0 0 16 16" fill="none" xmlns="http://www.w3.org/2000/svg">
<path d="M3.3335 4.00016C3.3335 4.17697 3.40373 4.34654 3.52876 4.47157C3.65378 4.59659 3.82335 4.66683 4.00016 4.66683C4.17697 4.66683 4.34654 4.59659 4.47157 4.47157C4.59659 4.34654 4.66683 4.17697 4.66683 4.00016C4.66683 3.82335 4.59659 3.65378 4.47157 3.52876C4.34654 3.40373 4.17697 3.3335 4.00016 3.3335C3.82335 3.3335 3.65378 3.40373 3.52876 3.52876C3.40373 3.65378 3.3335 3.82335 3.3335 4.00016Z" stroke="black" stroke-width="1.5" stroke-linecap="round" stroke-linejoin="round"/>
<path d="M7.3335 4.00016C7.3335 4.17697 7.40373 4.34654 7.52876 4.47157C7.65378 4.59659 7.82335 4.66683 8.00016 4.66683C8.17697 4.66683 8.34654 4.59659 8.47157 4.47157C8.59659 4.34654 8.66683 4.17697 8.66683 4.00016C8.66683 3.82335 8.59659 3.65378 8.47157 3.52876C8.34654 3.40373 8.17697 3.3335 8.00016 3.3335C7.82335 3.3335 7.65378 3.40373 7.52876 3.52876C7.40373 3.65378 7.3335 3.82335 7.3335 4.00016Z" stroke="black" stroke-width="1.5" stroke-linecap="round" stroke-linejoin="round"/>
<path d="M11.3335 4.00016C11.3335 4.17697 11.4037 4.34654 11.5288 4.47157C11.6538 4.59659 11.8234 4.66683 12.0002 4.66683C12.177 4.66683 12.3465 4.59659 12.4716 4.47157C12.5966 4.34654 12.6668 4.17697 12.6668 4.00016C12.6668 3.82335 12.5966 3.65378 12.4716 3.52876C12.3465 3.40373 12.177 3.3335 12.0002 3.3335C11.8234 3.3335 11.6538 3.40373 11.5288 3.52876C11.4037 3.65378 11.3335 3.82335 11.3335 4.00016Z" stroke="black" stroke-width="1.5" stroke-linecap="round" stroke-linejoin="round"/>
<path d="M3.3335 8.00016C3.3335 8.17697 3.40373 8.34654 3.52876 8.47157C3.65378 8.59659 3.82335 8.66683 4.00016 8.66683C4.17697 8.66683 4.34654 8.59659 4.47157 8.47157C4.59659 8.34654 4.66683 8.17697 4.66683 8.00016C4.66683 7.82335 4.59659 7.65378 4.47157 7.52876C4.34654 7.40373 4.17697 7.3335 4.00016 7.3335C3.82335 7.3335 3.65378 7.40373 3.52876 7.52876C3.40373 7.65378 3.3335 7.82335 3.3335 8.00016Z" stroke="black" stroke-width="1.5" stroke-linecap="round" stroke-linejoin="round"/>
<path d="M7.3335 8.00016C7.3335 8.17697 7.40373 8.34654 7.52876 8.47157C7.65378 8.59659 7.82335 8.66683 8.00016 8.66683C8.17697 8.66683 8.34654 8.59659 8.47157 8.47157C8.59659 8.34654 8.66683 8.17697 8.66683 8.00016C8.66683 7.82335 8.59659 7.65378 8.47157 7.52876C8.34654 7.40373 8.17697 7.3335 8.00016 7.3335C7.82335 7.3335 7.65378 7.40373 7.52876 7.52876C7.40373 7.65378 7.3335 7.82335 7.3335 8.00016Z" stroke="black" stroke-width="1.5" stroke-linecap="round" stroke-linejoin="round"/>
<path d="M11.3335 8.00016C11.3335 8.17697 11.4037 8.34654 11.5288 8.47157C11.6538 8.59659 11.8234 8.66683 12.0002 8.66683C12.177 8.66683 12.3465 8.59659 12.4716 8.47157C12.5966 8.34654 12.6668 8.17697 12.6668 8.00016C12.6668 7.82335 12.5966 7.65378 12.4716 7.52876C12.3465 7.40373 12.177 7.3335 12.0002 7.3335C11.8234 7.3335 11.6538 7.40373 11.5288 7.52876C11.4037 7.65378 11.3335 7.82335 11.3335 8.00016Z" stroke="black" stroke-width="1.5" stroke-linecap="round" stroke-linejoin="round"/>
<path d="M3.3335 12.0002C3.3335 12.177 3.40373 12.3465 3.52876 12.4716C3.65378 12.5966 3.82335 12.6668 4.00016 12.6668C4.17697 12.6668 4.34654 12.5966 4.47157 12.4716C4.59659 12.3465 4.66683 12.177 4.66683 12.0002C4.66683 11.8234 4.59659 11.6538 4.47157 11.5288C4.34654 11.4037 4.17697 11.3335 4.00016 11.3335C3.82335 11.3335 3.65378 11.4037 3.52876 11.5288C3.40373 11.6538 3.3335 11.8234 3.3335 12.0002Z" stroke="black" stroke-width="1.5" stroke-linecap="round" stroke-linejoin="round"/>
<path d="M7.3335 12.0002C7.3335 12.177 7.40373 12.3465 7.52876 12.4716C7.65378 12.5966 7.82335 12.6668 8.00016 12.6668C8.17697 12.6668 8.34654 12.5966 8.47157 12.4716C8.59659 12.3465 8.66683 12.177 8.66683 12.0002C8.66683 11.8234 8.59659 11.6538 8.47157 11.5288C8.34654 11.4037 8.17697 11.3335 8.00016 11.3335C7.82335 11.3335 7.65378 11.4037 7.52876 11.5288C7.40373 11.6538 7.3335 11.8234 7.3335 12.0002Z" stroke="black" stroke-width="1.5" stroke-linecap="round" stroke-linejoin="round"/>
<path d="M11.3335 12.0002C11.3335 12.177 11.4037 12.3465 11.5288 12.4716C11.6538 12.5966 11.8234 12.6668 12.0002 12.6668C12.177 12.6668 12.3465 12.5966 12.4716 12.4716C12.5966 12.3465 12.6668 12.177 12.6668 12.0002C12.6668 11.8234 12.5966 11.6538 12.4716 11.5288C12.3465 11.4037 12.177 11.3335 12.0002 11.3335C11.8234 11.3335 11.6538 11.4037 11.5288 11.5288C11.4037 11.6538 11.3335 11.8234 11.3335 12.0002Z" stroke="black" stroke-width="1.5" stroke-linecap="round" stroke-linejoin="round"/>
</svg>
