<svg width="16" height="16" viewBox="0 0 16 16" fill="none" xmlns="http://www.w3.org/2000/svg">
<path d="M8.00016 1.3335C11.6822 1.3335 14.6668 4.31816 14.6668 8.00016C14.6682 9.75048 13.9812 11.4311 12.7541 12.6793C11.527 13.9274 9.85826 14.6429 8.10818 14.6712C6.35809 14.6996 4.66705 14.0385 3.40016 12.8308C2.13327 11.6231 1.39216 9.9656 1.33683 8.21616L1.3335 8.00016L1.33616 7.8135C1.43483 4.21816 4.38016 1.3335 8.00016 1.3335ZM8.00016 7.3335H7.3335L7.2555 7.33816C7.09346 7.35744 6.94413 7.43547 6.83577 7.55747C6.72742 7.67948 6.66757 7.83699 6.66757 8.00016C6.66757 8.16334 6.72742 8.32085 6.83577 8.44285C6.94413 8.56486 7.09346 8.64289 7.2555 8.66216L7.3335 8.66683V10.6668L7.33816 10.7448C7.35571 10.8936 7.42288 11.0322 7.52884 11.1382C7.63479 11.2441 7.77335 11.3113 7.92216 11.3288L8.00016 11.3335H8.66683L8.74483 11.3288C8.89364 11.3113 9.0322 11.2441 9.13815 11.1382C9.24411 11.0322 9.31128 10.8936 9.32883 10.7448L9.3335 10.6668L9.32883 10.5888C9.31289 10.4528 9.25545 10.325 9.16432 10.2228C9.07319 10.1206 8.9528 10.0489 8.8195 10.0175L8.74483 10.0042L8.66683 10.0002V8.00016L8.66216 7.92216C8.64461 7.77335 8.57744 7.63479 8.47149 7.52884C8.36553 7.42288 8.22697 7.35571 8.07816 7.33816L8.00016 7.3335ZM8.00683 5.3335L7.92216 5.33816C7.76013 5.35744 7.61079 5.43547 7.50244 5.55747C7.39408 5.67948 7.33424 5.83699 7.33424 6.00016C7.33424 6.16334 7.39408 6.32085 7.50244 6.44285C7.61079 6.56486 7.76013 6.64289 7.92216 6.66216L8.00016 6.66683L8.08483 6.66216C8.24686 6.64289 8.3962 6.56486 8.50455 6.44285C8.61291 6.32085 8.67275 6.16334 8.67275 6.00016C8.67275 5.83699 8.61291 5.67948 8.50455 5.55747C8.3962 5.43547 8.24686 5.35744 8.08483 5.33816L8.00683 5.3335Z" fill="black"/>
</svg>
