<svg width="20" height="21" viewBox="0 0 20 21" fill="none" xmlns="http://www.w3.org/2000/svg">
<path d="M10 19.2996C9.59528 19.2996 9.19663 19.2012 8.83849 19.0127C8.48034 18.8242 8.17347 18.5513 7.94438 18.2177C6.03063 15.4321 3.75 11.4127 3.75 8.0752C3.75 6.41759 4.40848 4.82788 5.58058 3.65578C6.75269 2.48368 8.3424 1.8252 10 1.8252C11.6576 1.8252 13.2473 2.48368 14.4194 3.65578C15.5915 4.82788 16.25 6.41759 16.25 8.0752C16.25 11.4127 13.9694 15.4321 12.0556 18.2177C11.8265 18.5513 11.5197 18.8242 11.1615 19.0127C10.8034 19.2012 10.4047 19.2996 10 19.2996ZM10 3.0752C8.67437 3.07668 7.40347 3.60395 6.46611 4.54131C5.52875 5.47866 5.00149 6.74957 5 8.0752C5 11.2508 7.49 15.3496 8.97438 17.5127C9.08862 17.6792 9.24171 17.8155 9.42041 17.9096C9.5991 18.0037 9.79803 18.0529 10 18.0529C10.202 18.0529 10.4009 18.0037 10.5796 17.9096C10.7583 17.8155 10.9114 17.6792 11.0256 17.5127C12.51 15.3496 15 11.2508 15 8.0752C14.9985 6.74957 14.4712 5.47866 13.5339 4.54131C12.5965 3.60395 11.3256 3.07668 10 3.0752Z" fill="black"/>
<path d="M10 10.5752C9.50555 10.5752 9.0222 10.4286 8.61108 10.1539C8.19995 9.87917 7.87952 9.48872 7.6903 9.03191C7.50108 8.57509 7.45157 8.07242 7.54804 7.58747C7.6445 7.10252 7.8826 6.65706 8.23223 6.30743C8.58187 5.9578 9.02732 5.7197 9.51228 5.62323C9.99723 5.52677 10.4999 5.57628 10.9567 5.7655C11.4135 5.95472 11.804 6.27515 12.0787 6.68627C12.3534 7.09739 12.5 7.58074 12.5 8.0752C12.5 8.73824 12.2366 9.37412 11.7678 9.84296C11.2989 10.3118 10.663 10.5752 10 10.5752ZM10 6.8252C9.75277 6.8252 9.5111 6.89851 9.30554 7.03586C9.09998 7.17321 8.93976 7.36843 8.84515 7.59684C8.75054 7.82525 8.72579 8.07658 8.77402 8.31906C8.82225 8.56154 8.9413 8.78426 9.11612 8.95908C9.29093 9.1339 9.51366 9.25295 9.75614 9.30118C9.99861 9.34941 10.2499 9.32466 10.4784 9.23005C10.7068 9.13544 10.902 8.97522 11.0393 8.76966C11.1767 8.5641 11.25 8.32242 11.25 8.0752C11.25 7.74368 11.1183 7.42573 10.8839 7.19131C10.6495 6.95689 10.3315 6.8252 10 6.8252Z" fill="black"/>
</svg>
