<svg width="20" height="21" viewBox="0 0 20 21" fill="none" xmlns="http://www.w3.org/2000/svg">
<path d="M7.5 9.44531C7.5 10.1084 7.76339 10.7442 8.23223 11.2131C8.70107 11.6819 9.33696 11.9453 10 11.9453C10.663 11.9453 11.2989 11.6819 11.7678 11.2131C12.2366 10.7442 12.5 10.1084 12.5 9.44531C12.5 8.78227 12.2366 8.14639 11.7678 7.67755C11.2989 7.2087 10.663 6.94531 10 6.94531C9.33696 6.94531 8.70107 7.2087 8.23223 7.67755C7.76339 8.14639 7.5 8.78227 7.5 9.44531Z" stroke="black" stroke-width="1.66667" stroke-linecap="round" stroke-linejoin="round"/>
<path d="M14.7143 14.1589L11.1785 17.6947C10.866 18.0069 10.4423 18.1823 10.0006 18.1823C9.55885 18.1823 9.13518 18.0069 8.82267 17.6947L5.286 14.1589C4.35368 13.2265 3.71878 12.0387 3.46157 10.7455C3.20437 9.45227 3.33641 8.11184 3.841 6.89368C4.3456 5.67553 5.20008 4.63436 6.2964 3.90183C7.39272 3.1693 8.68164 2.77832 10.0002 2.77832C11.3187 2.77832 12.6076 3.1693 13.7039 3.90183C14.8003 4.63436 15.6547 5.67553 16.1593 6.89368C16.6639 8.11184 16.796 9.45227 16.5388 10.7455C16.2816 12.0387 15.6466 13.2265 14.7143 14.1589Z" stroke="black" stroke-width="1.66667" stroke-linecap="round" stroke-linejoin="round"/>
</svg>
