<svg width="20" height="21" viewBox="0 0 20 21" fill="none" xmlns="http://www.w3.org/2000/svg">
<path d="M2.5 6.11198C2.5 5.66995 2.67559 5.24603 2.98816 4.93347C3.30072 4.62091 3.72464 4.44531 4.16667 4.44531H15.8333C16.2754 4.44531 16.6993 4.62091 17.0118 4.93347C17.3244 5.24603 17.5 5.66995 17.5 6.11198V14.4453C17.5 14.8873 17.3244 15.3113 17.0118 15.6238C16.6993 15.9364 16.2754 16.112 15.8333 16.112H4.16667C3.72464 16.112 3.30072 15.9364 2.98816 15.6238C2.67559 15.3113 2.5 14.8873 2.5 14.4453V6.11198Z" stroke="black" stroke-width="1.66667" stroke-linecap="round" stroke-linejoin="round"/>
<path d="M2.5 6.11133L10 11.1113L17.5 6.11133" stroke="black" stroke-width="1.66667" stroke-linecap="round" stroke-linejoin="round"/>
</svg>
