<svg width="20" height="20" viewBox="0 0 20 20" fill="none" xmlns="http://www.w3.org/2000/svg">
<path d="M10 14.375C9.13471 14.375 8.28885 14.1184 7.56938 13.6377C6.84992 13.1569 6.28916 12.4737 5.95803 11.6742C5.6269 10.8748 5.54026 9.99515 5.70907 9.14648C5.87788 8.29781 6.29456 7.51826 6.90641 6.90641C7.51826 6.29456 8.29781 5.87788 9.14648 5.70907C9.99515 5.54026 10.8748 5.6269 11.6742 5.95803C12.4737 6.28916 13.1569 6.84992 13.6377 7.56938C14.1184 8.28885 14.375 9.13471 14.375 10C14.3737 11.1599 13.9123 12.2719 13.0921 13.0921C12.2719 13.9123 11.1599 14.3737 10 14.375ZM10 6.875C9.38193 6.875 8.77775 7.05828 8.26384 7.40166C7.74994 7.74504 7.3494 8.2331 7.11288 8.80412C6.87635 9.37513 6.81447 10.0035 6.93505 10.6097C7.05563 11.2158 7.35325 11.7727 7.79029 12.2097C8.22733 12.6467 8.78415 12.9444 9.39034 13.065C9.99653 13.1855 10.6249 13.1236 11.1959 12.8871C11.7669 12.6506 12.255 12.2501 12.5983 11.7362C12.9417 11.2223 13.125 10.6181 13.125 10C13.124 9.1715 12.7945 8.37723 12.2086 7.79139C11.6228 7.20555 10.8285 6.87599 10 6.875Z" fill="black"/>
<path d="M10 1.25C9.83424 1.25 9.67527 1.31585 9.55806 1.43306C9.44085 1.55027 9.375 1.70924 9.375 1.875V3.75C9.375 3.91576 9.44085 4.07473 9.55806 4.19194C9.67527 4.30915 9.83424 4.375 10 4.375C10.1658 4.375 10.3247 4.30915 10.4419 4.19194C10.5592 4.07473 10.625 3.91576 10.625 3.75V1.875C10.625 1.70924 10.5592 1.55027 10.4419 1.43306C10.3247 1.31585 10.1658 1.25 10 1.25Z" fill="black"/>
<path d="M10 15.625C9.83424 15.625 9.67527 15.6908 9.55806 15.8081C9.44085 15.9253 9.375 16.0842 9.375 16.25V18.125C9.375 18.2908 9.44085 18.4497 9.55806 18.5669C9.67527 18.6842 9.83424 18.75 10 18.75C10.1658 18.75 10.3247 18.6842 10.4419 18.5669C10.5592 18.4497 10.625 18.2908 10.625 18.125V16.25C10.625 16.0842 10.5592 15.9253 10.4419 15.8081C10.3247 15.6908 10.1658 15.625 10 15.625Z" fill="black"/>
<path d="M14.4193 6.20519C14.585 6.20516 14.744 6.13928 14.8612 6.02207L16.1874 4.69644C16.3047 4.57917 16.3706 4.42011 16.3706 4.25425C16.3706 4.0884 16.3047 3.92934 16.1874 3.81207C16.0702 3.69479 15.9111 3.62891 15.7452 3.62891C15.5794 3.62891 15.4203 3.69479 15.3031 3.81207L13.9774 5.13832C13.89 5.22572 13.8305 5.33708 13.8064 5.4583C13.7823 5.57952 13.7947 5.70516 13.842 5.81935C13.8893 5.93354 13.9694 6.03114 14.0721 6.09982C14.1749 6.1685 14.2957 6.20516 14.4193 6.20519Z" fill="black"/>
<path d="M5.13832 13.9778L3.81207 15.3034C3.754 15.3615 3.70793 15.4304 3.67651 15.5063C3.64508 15.5822 3.62891 15.6635 3.62891 15.7456C3.62891 15.8277 3.64508 15.909 3.67651 15.9849C3.70793 16.0608 3.754 16.1297 3.81207 16.1878C3.92934 16.3051 4.0884 16.3709 4.25425 16.3709C4.33638 16.3709 4.41769 16.3548 4.49356 16.3233C4.56943 16.2919 4.63837 16.2458 4.69644 16.1878L6.02207 14.8622C6.08176 14.8045 6.12937 14.7355 6.16213 14.6593C6.19489 14.583 6.21213 14.501 6.21285 14.418C6.21357 14.335 6.19776 14.2527 6.16633 14.1759C6.1349 14.0991 6.0885 14.0293 6.02981 13.9707C5.97113 13.912 5.90135 13.8656 5.82454 13.8341C5.74773 13.8027 5.66543 13.7869 5.58244 13.7876C5.49945 13.7883 5.41744 13.8056 5.34119 13.8383C5.26494 13.8711 5.19597 13.9181 5.13832 13.9778Z" fill="black"/>
<path d="M14.8612 13.9774C14.8035 13.9177 14.7346 13.8701 14.6583 13.8374C14.5821 13.8046 14.5 13.7874 14.4171 13.7866C14.3341 13.7859 14.2518 13.8017 14.175 13.8332C14.0981 13.8646 14.0284 13.911 13.9697 13.9697C13.911 14.0284 13.8646 14.0981 13.8332 14.175C13.8017 14.2518 13.7859 14.3341 13.7866 14.4171C13.7874 14.5 13.8046 14.5821 13.8374 14.6583C13.8701 14.7346 13.9177 14.8035 13.9774 14.8612L15.3031 16.1874C15.3611 16.2455 15.4301 16.2916 15.5059 16.323C15.5818 16.3544 15.6631 16.3706 15.7452 16.3706C15.8274 16.3706 15.9087 16.3544 15.9845 16.323C16.0604 16.2916 16.1294 16.2455 16.1874 16.1874C16.2455 16.1294 16.2916 16.0604 16.323 15.9845C16.3544 15.9087 16.3706 15.8274 16.3706 15.7452C16.3706 15.6631 16.3544 15.5818 16.323 15.5059C16.2916 15.4301 16.2455 15.3611 16.1874 15.3031L14.8612 13.9774Z" fill="black"/>
<path d="M4.69644 3.81207C4.57917 3.69479 4.42011 3.62891 4.25425 3.62891C4.0884 3.62891 3.92934 3.69479 3.81207 3.81207C3.69479 3.92934 3.62891 4.0884 3.62891 4.25425C3.62891 4.42011 3.69479 4.57917 3.81207 4.69644L5.13832 6.02207C5.25619 6.13591 5.41407 6.19891 5.57794 6.19749C5.74181 6.19606 5.89857 6.13033 6.01445 6.01445C6.13033 5.89857 6.19606 5.74181 6.19749 5.57794C6.19891 5.41407 6.13591 5.25619 6.02207 5.13832L4.69644 3.81207Z" fill="black"/>
<path d="M4.375 10C4.375 9.83424 4.30915 9.67527 4.19194 9.55806C4.07473 9.44085 3.91576 9.375 3.75 9.375H1.875C1.70924 9.375 1.55027 9.44085 1.43306 9.55806C1.31585 9.67527 1.25 9.83424 1.25 10C1.25 10.1658 1.31585 10.3247 1.43306 10.4419C1.55027 10.5592 1.70924 10.625 1.875 10.625H3.75C3.91576 10.625 4.07473 10.5592 4.19194 10.4419C4.30915 10.3247 4.375 10.1658 4.375 10Z" fill="black"/>
<path d="M18.125 9.375H16.25C16.0842 9.375 15.9253 9.44085 15.8081 9.55806C15.6908 9.67527 15.625 9.83424 15.625 10C15.625 10.1658 15.6908 10.3247 15.8081 10.4419C15.9253 10.5592 16.0842 10.625 16.25 10.625H18.125C18.2908 10.625 18.4497 10.5592 18.5669 10.4419C18.6842 10.3247 18.75 10.1658 18.75 10C18.75 9.83424 18.6842 9.67527 18.5669 9.55806C18.4497 9.44085 18.2908 9.375 18.125 9.375Z" fill="black"/>
</svg>
