<svg width="20" height="20" viewBox="0 0 20 20" fill="none" xmlns="http://www.w3.org/2000/svg">
<path d="M15.9375 7.5H15.625V6.875C15.625 5.38316 15.0324 3.95242 13.9775 2.89752C12.9226 1.84263 11.4918 1.25 10 1.25C8.50816 1.25 7.07742 1.84263 6.02252 2.89752C4.96763 3.95242 4.375 5.38316 4.375 6.875V7.5H4.0625C3.48234 7.5 2.92594 7.73047 2.5157 8.1407C2.10547 8.55094 1.875 9.10734 1.875 9.6875V11.5625C1.875 12.1427 2.10547 12.6991 2.5157 13.1093C2.92594 13.5195 3.48234 13.75 4.0625 13.75H5.625C5.95652 13.75 6.27446 13.6183 6.50888 13.3839C6.7433 13.1495 6.875 12.8315 6.875 12.5V8.75C6.875 8.41848 6.7433 8.10054 6.50888 7.86612C6.27446 7.6317 5.95652 7.5 5.625 7.5V6.875C5.625 5.71468 6.08594 4.60188 6.90641 3.78141C7.72688 2.96094 8.83968 2.5 10 2.5C11.1603 2.5 12.2731 2.96094 13.0936 3.78141C13.9141 4.60188 14.375 5.71468 14.375 6.875V7.5C14.0435 7.5 13.7255 7.6317 13.4911 7.86612C13.2567 8.10054 13.125 8.41848 13.125 8.75V12.5C13.125 12.8315 13.2567 13.1495 13.4911 13.3839C13.7255 13.6183 14.0435 13.75 14.375 13.75H15V14.375C15 14.8723 14.8025 15.3492 14.4508 15.7008C14.0992 16.0525 13.6223 16.25 13.125 16.25H12.385C12.2376 15.833 11.9475 15.4815 11.566 15.2577C11.1844 15.0339 10.7361 14.9522 10.3002 15.027C9.86423 15.1018 9.46877 15.3283 9.18368 15.6665C8.8986 16.0046 8.74223 16.4327 8.74223 16.875C8.74223 17.3173 8.8986 17.7454 9.18368 18.0835C9.46877 18.4217 9.86423 18.6482 10.3002 18.723C10.7361 18.7978 11.1844 18.7161 11.566 18.4923C11.9475 18.2685 12.2376 17.917 12.385 17.5H13.125C13.9535 17.499 14.7478 17.1694 15.3336 16.5836C15.9194 15.9978 16.249 15.2035 16.25 14.375V13.7181C16.7693 13.644 17.2446 13.3853 17.5889 12.9895C17.9332 12.5936 18.1235 12.0871 18.125 11.5625V9.6875C18.125 9.10734 17.8945 8.55094 17.4843 8.1407C17.0741 7.73047 16.5177 7.5 15.9375 7.5ZM5.625 12.5H4.0625C3.81386 12.5 3.5754 12.4012 3.39959 12.2254C3.22377 12.0496 3.125 11.8111 3.125 11.5625V9.6875C3.125 9.43886 3.22377 9.2004 3.39959 9.02459C3.5754 8.84877 3.81386 8.75 4.0625 8.75H5.625V12.5ZM10.625 17.5C10.5014 17.5 10.3805 17.4633 10.2778 17.3947C10.175 17.326 10.0949 17.2284 10.0476 17.1142C10.0003 17 9.98789 16.8743 10.012 16.7531C10.0361 16.6318 10.0956 16.5205 10.1831 16.4331C10.2705 16.3456 10.3818 16.2861 10.5031 16.262C10.6243 16.2379 10.75 16.2503 10.8642 16.2976C10.9784 16.3449 11.076 16.425 11.1447 16.5278C11.2133 16.6305 11.25 16.7514 11.25 16.875C11.25 17.0408 11.1842 17.1997 11.0669 17.3169C10.9497 17.4342 10.7908 17.5 10.625 17.5ZM16.875 11.5625C16.875 11.8111 16.7762 12.0496 16.6004 12.2254C16.4246 12.4012 16.1861 12.5 15.9375 12.5H14.375V8.75H15.9375C16.1861 8.75 16.4246 8.84877 16.6004 9.02459C16.7762 9.2004 16.875 9.43886 16.875 9.6875V11.5625Z" fill="black"/>
</svg>
