<svg width="20" height="21" viewBox="0 0 20 21" fill="none" xmlns="http://www.w3.org/2000/svg">
<path d="M10 19.3252C8.26942 19.3252 6.57769 18.812 5.13876 17.8506C3.69983 16.8891 2.57832 15.5225 1.91606 13.9237C1.25379 12.3248 1.08051 10.5655 1.41813 8.86816C1.75575 7.17083 2.58911 5.61172 3.81282 4.38801C5.03653 3.16431 6.59563 2.33095 8.29296 1.99333C9.9903 1.65571 11.7496 1.82899 13.3485 2.49125C14.9473 3.15352 16.3139 4.27503 17.2754 5.71396C18.2368 7.15289 18.75 8.84461 18.75 10.5752C18.7475 12.8951 17.8249 15.1192 16.1844 16.7596C14.544 18.4 12.3199 19.3227 10 19.3252ZM10 3.0752C8.51664 3.0752 7.0666 3.51507 5.83323 4.33918C4.59986 5.16329 3.63856 6.33463 3.07091 7.70507C2.50325 9.07552 2.35473 10.5835 2.64411 12.0384C2.9335 13.4932 3.64781 14.8296 4.6967 15.8785C5.7456 16.9274 7.08197 17.6417 8.53683 17.9311C9.99168 18.2205 11.4997 18.072 12.8701 17.5043C14.2406 16.9366 15.4119 15.9753 16.236 14.742C17.0601 13.5086 17.5 12.0586 17.5 10.5752C17.4979 8.58674 16.707 6.68033 15.3009 5.27427C13.8949 3.86822 11.9885 3.07735 10 3.0752Z" fill="#FF2626"/>
<path d="M10.8836 10.5744L12.9417 8.51623C13.0556 8.39835 13.1186 8.24047 13.1172 8.0766C13.1157 7.91273 13.05 7.75597 12.9341 7.64009C12.8182 7.52421 12.6615 7.45848 12.4976 7.45705C12.3337 7.45563 12.1759 7.51863 12.058 7.63248L9.99987 9.6906L7.94174 7.63248C7.82387 7.51863 7.66599 7.45563 7.50212 7.45705C7.33824 7.45848 7.18149 7.52421 7.06561 7.64009C6.94973 7.75597 6.884 7.91273 6.88257 8.0766C6.88115 8.24047 6.94414 8.39835 7.05799 8.51623L9.11612 10.5744L7.05799 12.6325C6.9983 12.6901 6.95068 12.7591 6.91793 12.8353C6.88517 12.9116 6.86793 12.9936 6.86721 13.0766C6.86649 13.1596 6.8823 13.2419 6.91373 13.3187C6.94516 13.3955 6.99156 13.4653 7.05025 13.524C7.10893 13.5827 7.17871 13.6291 7.25552 13.6605C7.33233 13.6919 7.41463 13.7077 7.49762 13.707C7.58061 13.7063 7.66262 13.689 7.73887 13.6563C7.81512 13.6235 7.88409 13.5759 7.94174 13.5162L9.99987 11.4581L12.058 13.5162C12.1759 13.6301 12.3337 13.6931 12.4976 13.6916C12.6615 13.6902 12.8182 13.6245 12.9341 13.5086C13.05 13.3927 13.1157 13.236 13.1172 13.0721C13.1186 12.9082 13.0556 12.7504 12.9417 12.6325L10.8836 10.5744Z" fill="#FF2626"/>
</svg>
