<svg width="20" height="21" viewBox="0 0 20 21" fill="none" xmlns="http://www.w3.org/2000/svg">
<path d="M10 19.3252C8.26942 19.3252 6.57769 18.812 5.13876 17.8506C3.69983 16.8891 2.57832 15.5225 1.91606 13.9237C1.25379 12.3248 1.08051 10.5655 1.41813 8.86816C1.75575 7.17083 2.58911 5.61172 3.81282 4.38801C5.03653 3.16431 6.59563 2.33095 8.29296 1.99333C9.9903 1.65571 11.7496 1.82899 13.3485 2.49125C14.9473 3.15352 16.3139 4.27503 17.2754 5.71396C18.2368 7.15289 18.75 8.84461 18.75 10.5752C18.7475 12.8951 17.8249 15.1192 16.1844 16.7596C14.544 18.4 12.3199 19.3227 10 19.3252ZM10 3.0752C8.51664 3.0752 7.0666 3.51507 5.83323 4.33918C4.59986 5.16329 3.63856 6.33463 3.07091 7.70507C2.50325 9.07552 2.35473 10.5835 2.64411 12.0384C2.9335 13.4932 3.64781 14.8296 4.6967 15.8785C5.7456 16.9274 7.08197 17.6417 8.53683 17.9311C9.99168 18.2205 11.4997 18.072 12.8701 17.5043C14.2406 16.9366 15.4119 15.9753 16.236 14.742C17.0601 13.5086 17.5 12.0586 17.5 10.5752C17.4979 8.58674 16.707 6.68033 15.3009 5.27427C13.8949 3.86822 11.9885 3.07735 10 3.0752Z" fill="#55A6A6"/>
<path d="M8.75062 13.3869C8.58487 13.3868 8.42593 13.3209 8.30875 13.2037L6.43375 11.3287C6.3199 11.2108 6.2569 11.053 6.25832 10.8891C6.25975 10.7252 6.32548 10.5685 6.44136 10.4526C6.55724 10.3367 6.714 10.271 6.87787 10.2696C7.04174 10.2681 7.19962 10.3311 7.3175 10.445L8.75062 11.8781L12.6837 7.94498C12.8016 7.83113 12.9595 7.76813 13.1234 7.76955C13.2872 7.77098 13.444 7.83671 13.5599 7.95259C13.6758 8.06847 13.7415 8.22523 13.7429 8.3891C13.7443 8.55297 13.6813 8.71085 13.5675 8.82873L9.1925 13.2037C9.07531 13.3209 8.91637 13.3868 8.75062 13.3869Z" fill="#55A6A6"/>
</svg>
